<?xml version="1.0" standalone="no"?>
<!DOCTYPE svg PUBLIC "-//W3C//DTD SVG 20010904//EN"
 "http://www.w3.org/TR/2001/REC-SVG-20010904/DTD/svg10.dtd">
<svg version="1.0" xmlns="http://www.w3.org/2000/svg"
 width="2000.000000pt" height="2000.000000pt" viewBox="0 0 2000.000000 2000.000000"
 preserveAspectRatio="xMidYMid meet">
<metadata>
Created by potrace 1.14, written by Peter Selinger 2001-2017
</metadata>
<g transform="translate(0.000000,2000.000000) scale(0.100000,-0.100000)"
fill="#000000" stroke="none">
<path d="M9856 15043 c-10 -49 -24 -113 -32 -143 -7 -30 -16 -71 -19 -90 -3
-19 -10 -49 -16 -66 -5 -17 -11 -44 -13 -60 -3 -16 -14 -72 -26 -124 -12 -52
-24 -106 -26 -120 -3 -14 -7 -33 -10 -42 -3 -9 -7 -25 -9 -35 -2 -10 -37 -171
-79 -358 -64 -289 -106 -484 -121 -554 -2 -9 -19 -87 -39 -174 -20 -87 -38
-168 -40 -180 -9 -40 -64 -291 -86 -387 -12 -52 -24 -106 -26 -120 -3 -14 -14
-62 -24 -107 -11 -46 -21 -93 -24 -105 -14 -76 -159 -726 -165 -742 -6 -15
-16 -6 -66 55 -81 101 -213 232 -315 312 -47 37 -89 71 -95 75 -44 35 -241
150 -335 195 -166 80 -447 178 -578 202 -15 3 -38 7 -52 10 -94 19 -260 45
-336 52 -111 10 -585 10 -679 0 -71 -8 -250 -33 -294 -42 -125 -24 -227 -48
-242 -56 -11 -5 -19 -8 -19 -5 0 2 -42 -9 -92 -24 -412 -126 -728 -289 -1088
-564 -228 -174 -516 -467 -706 -721 -335 -445 -593 -958 -773 -1534 -28 -88
-52 -171 -55 -185 -3 -14 -7 -29 -9 -33 -5 -8 -76 -307 -83 -353 -3 -14 -13
-70 -24 -125 -10 -55 -21 -122 -24 -150 -4 -27 -9 -66 -12 -85 -41 -276 -57
-644 -40 -967 4 -72 9 -140 11 -151 2 -11 6 -54 10 -96 3 -41 8 -84 10 -95 2
-10 6 -41 10 -68 4 -26 13 -79 20 -118 8 -38 17 -86 20 -105 11 -66 75 -298
109 -399 262 -761 781 -1300 1487 -1546 209 -73 477 -131 699 -151 164 -15
661 -7 690 11 4 2 28 6 56 10 27 3 63 8 79 11 52 9 259 63 295 78 19 8 62 24
95 37 92 34 284 131 377 190 183 117 362 264 551 453 146 147 137 151 90 -43
-13 -57 -26 -111 -28 -120 -2 -9 -13 -56 -25 -106 -12 -49 -23 -97 -25 -105
-2 -8 -15 -65 -29 -127 -14 -61 -26 -114 -26 -116 0 -3 608 -5 1350 -5 743 0
1350 3 1350 6 0 6 141 646 165 747 8 33 44 195 80 360 36 165 72 327 80 360 7
33 34 155 59 270 25 116 52 237 60 270 8 33 44 195 81 360 54 249 73 335 90
405 1 3 5 23 9 45 5 22 17 78 28 125 11 47 21 92 23 101 10 53 48 222 60 269
7 30 16 69 19 85 2 17 19 93 36 170 47 208 100 446 105 480 3 17 10 44 15 60
5 17 11 41 14 55 2 14 9 45 15 70 5 25 12 57 15 73 9 42 13 61 51 227 14 63
28 125 30 138 10 46 16 73 75 337 34 149 63 279 65 290 2 11 11 52 20 90 8 39
18 80 21 93 2 13 16 76 30 140 24 105 32 142 48 220 3 13 7 31 10 40 3 9 8 35
12 57 3 22 8 43 10 46 2 3 17 71 34 150 17 79 33 151 35 159 21 94 105 471
109 490 2 14 12 57 21 95 9 39 19 81 22 95 2 14 49 228 105 475 55 248 102
461 105 475 2 14 9 43 14 65 5 22 12 51 15 65 8 42 104 471 119 535 13 57 58
263 69 315 3 14 7 34 10 45 19 81 66 296 71 324 3 19 8 37 10 41 2 3 6 17 8
31 3 13 26 120 52 238 25 117 48 220 50 230 2 9 12 53 23 99 l19 82 -1351 0
-1351 0 -19 -87z m-2171 -4887 c28 -3 61 -8 75 -11 13 -3 41 -7 62 -10 140
-21 407 -121 523 -195 17 -11 37 -23 45 -27 27 -12 164 -120 223 -175 60 -58
65 -72 47 -138 -5 -19 -11 -46 -14 -60 -2 -14 -14 -65 -26 -115 -12 -49 -24
-100 -26 -113 -3 -12 -13 -59 -24 -105 -10 -45 -21 -94 -24 -109 -2 -15 -7
-31 -9 -36 -3 -4 -8 -27 -12 -51 -3 -24 -11 -55 -16 -70 -6 -14 -10 -27 -9
-29 1 -1 -1 -15 -4 -30 -4 -15 -9 -37 -11 -49 -3 -13 -7 -33 -10 -45 -3 -13
-7 -32 -10 -43 -2 -11 -25 -110 -50 -220 -26 -110 -48 -209 -50 -220 -3 -11
-28 -121 -56 -245 l-51 -225 -56 -55 c-123 -119 -310 -248 -457 -315 -115 -52
-270 -100 -360 -110 -27 -3 -66 -8 -85 -11 -48 -6 -249 -6 -280 0 -14 3 -41 8
-61 10 -134 17 -327 90 -456 173 -119 76 -241 192 -322 306 -85 121 -175 339
-196 478 -4 24 -9 55 -11 69 -6 39 -5 300 1 345 6 45 22 144 30 190 4 17 13
55 21 85 8 30 16 60 18 65 14 58 49 143 106 260 173 352 460 616 814 749 66
25 164 53 216 62 14 3 32 7 40 9 8 2 47 7 85 11 39 3 71 7 73 9 5 4 254 -3
307 -9z"/>
<path d="M17088 12555 c-2 -1 -68 -5 -148 -9 -80 -3 -158 -8 -175 -10 -16 -3
-52 -7 -80 -11 -103 -13 -122 -16 -195 -30 -63 -11 -226 -46 -280 -60 -219
-54 -562 -194 -795 -324 -195 -110 -471 -315 -639 -475 -44 -42 -80 -75 -81
-73 -2 2 18 89 50 222 31 131 48 204 65 275 10 47 32 136 48 198 l28 112 -26
0 c-42 1 -2612 1 -2646 1 -31 -1 -31 -1 -52 -98 -12 -54 -40 -179 -63 -278
-22 -99 -67 -301 -99 -450 -33 -148 -69 -308 -79 -355 -11 -47 -22 -96 -24
-110 -3 -14 -10 -43 -15 -65 -6 -22 -13 -53 -15 -70 -3 -16 -12 -59 -21 -95
-8 -36 -17 -76 -20 -90 -2 -14 -16 -77 -31 -140 -14 -63 -27 -124 -29 -135 -2
-11 -11 -50 -20 -86 -8 -37 -18 -79 -21 -93 -3 -14 -7 -36 -10 -48 -3 -13 -7
-32 -9 -44 -2 -11 -11 -49 -19 -85 -9 -35 -22 -95 -31 -134 -35 -160 -78 -351
-82 -370 -3 -11 -7 -31 -10 -45 -3 -14 -37 -167 -75 -340 -39 -173 -72 -324
-74 -335 -3 -11 -25 -112 -51 -225 -25 -113 -48 -216 -50 -229 -7 -34 -28
-132 -52 -236 -12 -49 -23 -101 -26 -115 -3 -14 -19 -88 -36 -165 -16 -77 -32
-149 -35 -160 -2 -11 -10 -49 -18 -85 -8 -36 -27 -119 -41 -185 -15 -66 -35
-156 -46 -200 -10 -44 -21 -91 -24 -105 -2 -14 -9 -47 -16 -75 -6 -27 -23
-102 -36 -165 -14 -63 -27 -122 -29 -130 -2 -8 -20 -89 -40 -180 -39 -178
-104 -472 -111 -505 -3 -11 -8 -38 -13 -60 -5 -22 -27 -123 -50 -225 -23 -102
-54 -237 -67 -300 -14 -63 -27 -122 -29 -130 -3 -14 -51 -232 -60 -276 l-5
-22 1349 0 1349 0 10 41 c11 41 20 82 28 121 16 83 106 498 114 526 5 19 12
51 15 70 3 19 8 43 11 52 5 17 11 44 20 93 3 17 16 80 30 140 14 61 29 128 34
150 4 22 18 85 30 140 20 91 37 173 85 395 9 41 22 102 30 135 8 33 31 137 50
230 20 94 52 242 71 330 57 260 83 378 88 405 2 14 11 54 20 90 8 36 18 79 21
95 11 58 16 81 36 170 12 50 23 99 25 110 4 20 9 43 64 295 17 80 34 156 36
170 3 14 7 33 10 42 3 10 7 30 10 45 4 23 12 61 19 93 2 10 25 116 29 135 45
216 64 280 92 303 230 189 457 316 720 402 115 37 262 74 342 86 20 2 48 7 62
9 25 5 65 9 165 20 65 7 317 8 375 1 25 -3 72 -8 105 -11 88 -9 219 -29 290
-45 22 -5 54 -11 72 -14 17 -3 59 -15 94 -26 35 -10 64 -18 65 -17 1 1 64 282
89 397 1 8 28 128 58 265 31 138 86 385 122 550 36 165 76 345 90 400 13 55
26 114 29 130 2 17 7 39 10 50 9 40 25 111 30 135 8 41 128 579 145 650 6 25
11 48 11 51 0 7 -36 19 -42 14z"/>
</g>
</svg>
